<svg xmlns="http://www.w3.org/2000/svg" xmlns:xlink="http://www.w3.org/1999/xlink" width="800" height="220"><defs><symbol overflow="visible" id="prefix__a"><path d="M18.313-189.36h65.703v134.891h86.296V0h-152zm0 0"/></symbol><symbol overflow="visible" id="prefix__b"><path d="M19.047-189.36h87.36c16.913 0 30.722 2.36 41.421 7.079 10.695 4.719 19.547 11.496 26.547 20.328 7 8.836 12.04 18.984 15.125 30.453 3.082 11.469 4.625 23.54 4.625 36.203 0 19.813-2.32 35.328-6.953 46.547-4.625 11.21-11.106 20.652-19.438 28.328-8.324 7.668-17.336 12.79-27.03 15.36C128.14-1.688 116.706 0 106.405 0h-87.36zm65.703 50.938v87.36h8.344c10.695 0 18.023-1.036 21.984-3.11 3.969-2.082 7.14-5.867 9.516-11.36 2.383-5.5 3.578-15.05 3.578-28.656 0-17.656-2.617-29.44-7.844-35.359-5.23-5.914-14.226-8.875-26.984-8.875zm0 0"/></symbol><symbol overflow="visible" id="prefix__c"><path d="M19.047 0v-189.36h97.36c17.644 0 31.39 1.602 41.234 4.798 9.843 3.187 17.851 9.214 24.03 18.078 6.188 8.855 9.282 19.527 9.282 32.015 0 10.875-2.351 20.305-7.047 28.281-4.699 7.981-11.125 14.438-19.281 19.376-5.2 3.148-8.96 4.199-11.281 3.156.988-1.281 3.207-.66 6.656 1.86 2.395 1.73 5.656 5.163 9.781 10.296 4.133 5.125 6.93 9.148 8.39 12.063L208.798 0h-74.14L103.64-57.438c-3.375-6.382-6.184-10.382-8.422-12-3.074-2.124-6.59-3.187-10.547-3.187v-.313L84.984 0zm65.937-116.86h18.125c2.133 0 6.657-.773 13.563-2.328 2.426-.476 4.422-1.726 5.984-3.75 1.563-2.03 2.344-4.41 2.344-7.14 0-4.164-1.281-7.332-3.844-9.5-2.562-2.164-8.258-3.25-17.078-3.25H84.984zm0 0"/></symbol><symbol overflow="visible" id="prefix__d"><path d="M1.563-189.36h73.53l28.673 49.704 27.78-49.703h72.892l-59 91.843L209.827 0H135.11l-32.375-52.766L70.25 0H-4.125l65.234-98.484zm0 0"/></symbol></defs><g fill="#111"><use xlink:href="#prefix__a" x="25" y="199.998"/><use xlink:href="#prefix__b" x="171.748" y="199.998"/><use xlink:href="#prefix__c" x="346.207" y="199.998"/><use xlink:href="#prefix__d" x="520.666" y="199.998"/></g><path d="M43.313 10.64h65.703v134.891h86.296V200h-152zm147.484 0h87.36c16.913 0 30.722 2.36 41.421 7.079 10.695 4.718 19.547 11.496 26.547 20.328 7 8.836 12.04 18.984 15.125 30.453 3.082 11.469 4.625 23.54 4.625 36.203 0 19.813-2.32 35.328-6.953 46.547-4.625 11.21-11.106 20.652-19.438 28.328-8.324 7.668-17.336 12.79-27.03 15.36-12.563 3.375-23.997 5.062-34.298 5.062h-87.36zM256.5 61.579v87.36h8.344c10.695 0 18.023-1.036 21.984-3.11 3.969-2.082 7.14-5.867 9.516-11.36 2.383-5.5 3.578-15.05 3.578-28.655 0-17.657-2.617-29.442-7.844-35.36-5.23-5.914-14.226-8.875-26.984-8.875zM365.254 200V10.64h97.36c17.644 0 31.39 1.602 41.234 4.797 9.843 3.188 17.851 9.215 24.03 18.079 6.188 8.855 9.282 19.527 9.282 32.015 0 10.875-2.351 20.305-7.047 28.281-4.699 7.981-11.125 14.438-19.281 19.376-5.2 3.148-8.96 4.199-11.281 3.156.988-1.281 3.207-.66 6.656 1.86 2.395 1.73 5.656 5.163 9.781 10.296 4.133 5.125 6.93 9.148 8.39 12.063L555.005 200h-74.14l-31.016-57.438c-3.375-6.382-6.184-10.382-8.422-12-3.074-2.125-6.59-3.187-10.547-3.187v-.313L431.19 200zM431.19 83.14h18.125c2.133 0 6.657-.773 13.563-2.328 2.426-.476 4.422-1.726 5.984-3.75 1.563-2.03 2.344-4.41 2.344-7.14 0-4.164-1.281-7.332-3.844-9.5-2.562-2.164-8.258-3.25-17.078-3.25h-19.094zm91.036-72.5h73.53l28.673 49.704 27.78-49.703h72.892l-59 91.843L730.492 200h-74.719l-32.375-52.766L590.914 200H516.54l65.234-98.484zM25-75.147" fill="none" stroke="#fff" stroke-width="2"/></svg>